# xmcd CD database file
#
# Track frame offsets:
#	150
#	20825
#	41137
#	62472
#	78770
#	93802
#	109127
#	123957
#	157320
#	178777
#	197347
#	215007
#	218080
#	229590
#	240767
#	257200
#	274705
#	295682
#
# Disc length: 4268 seconds
#
# Revision: 0
# Processed by: cddbd v1.5.1PL0 Copyright (c) Steve Scherf et al.
# Submitted via: CDex 1.60beta1
#
DISCID=f610aa12
DTITLE=中森明菜 - 中森明菜コレクション 1982〜1991 [CD16)
DYEAR=1996
DGENRE=JPop
TTITLE0=LIAR
TTITLE1=乱火
TTITLE2=雨が降ってた…
TTITLE3=MY POSITION
TTITLE4=SOFT TOUCH
TTITLE5=THE LOOK THAT KILLS
TTITLE6=NO MORE
TTITLE7=Dear Friend
TTITLE8=CARIBBEAN
TTITLE9=アサイラム
TTITLE10=サザン・ウインド
TTITLE11=目をとじて小旅行
TTITLE12=スローモーション
TTITLE13=セカンド・ラブ
TTITLE14=北ウイング
TTITLE15=ミ・アモーレ[Meu amor e...]
TTITLE16=水に挿した花
TTITLE17=忘れて…
EXTD=YEAR: 1996
EXTT0=
EXTT1=
EXTT2=
EXTT3=
EXTT4=
EXTT5=
EXTT6=
EXTT7=
EXTT8=
EXTT9=
EXTT10=
EXTT11=
EXTT12=
EXTT13=
EXTT14=
EXTT15=
EXTT16=
EXTT17=
PLAYORDER=
